<?xml version="1.0" encoding="iso-8859-1"?>
<!-- Uploaded to: SVG Repo, www.svgrepo.com, Generator: SVG Repo Mixer Tools -->
<svg height="800px" width="800px" version="1.1" id="Layer_1" xmlns="http://www.w3.org/2000/svg" xmlns:xlink="http://www.w3.org/1999/xlink" 
	 viewBox="0 0 512 512" xml:space="preserve">
<g>
	<path style="fill:#C0C0C6;" d="M224,96c-12-34-36-88-64-88S32,112,32,112s89.498-64.318,120-56c7.333,2,16,64,16,64
		C190.309,103.418,208.806,95.818,224,96z"/>
	<path style="fill:#C0C0C6;" d="M352,8c-28,0-52,54-64,88c19.055,0.586,37.804,7.019,56,24c0,0,8.667-62,16-64
		c30.502-8.318,120,56,120,56S380,8,352,8z"/>
	<path style="fill:#C0C0C6;" d="M8,219.895C8,240.895,63.375,279,87,231c25.228-51.256,65-51.105,65-51.105v-16
		C89.75,163.895,8,199.895,8,219.895z"/>
</g>
<g>
	<path style="fill:#464655;" d="M419,223c-27.5-17.5-50,0-50,0c6.5-21,8-30,3-46C396.31,185.831,412.585,203.958,419,223z"/>
	<path style="fill:#464655;" d="M91,223c27.5-17.5,50,0,50,0c-6.5-21-8-30-3-46C113.69,185.831,97.415,203.958,91,223z"/>
</g>
<path style="fill:#C0C0C6;" d="M504,219.895C507,246.5,450,278,422,230c-28.785-49.346-62-50.105-62-50.105v-16
	C422.25,163.895,501.759,200.021,504,219.895z"/>
<path style="fill:#AC8A67;" d="M144,211.895c0,72,56,224.105,56,224.105c8,36,25.072,56,56,56s48-22.667,56-56
	c0,0,56-150.772,56-224.105H144z"/>
<path style="fill:#FFEBD2;" d="M270.938,97.338c-4.708,2.308-9.822,3.462-14.938,3.462s-10.229-1.154-14.938-3.462
	c-64.999-31.857-137.476,102.76-89.171,122.557c0,0,48.108,8.105,48.108,32.105s8,184,8,184h48h48c0,0,8-160,8-184
	s48.108-32.105,48.108-32.105C408.414,200.098,335.937,65.48,270.938,97.338z"/>
<path style="fill:#AC8A67;" d="M329.183,106.957c-17.651-13.456-38.294-19.397-58.246-9.619c-4.708,2.308-9.822,3.462-14.938,3.462
	s-10.229-1.154-14.938-3.462c-19.951-9.778-40.594-3.837-58.246,9.619C171.919,172.954,224,189.352,224,228c0,16,0,128,0,168h32h32
	c0-40,0-152,0-168C288,189.352,340.081,172.954,329.183,106.957z"/>
<path style="fill:#FFEBD2;" d="M264.216,475.749c-5.144-2.985-11.288-2.985-16.432,0C243.141,478.443,237.767,480,232,480
	c-5.765,0-11.167-1.537-15.839-4.205C217.933,492.158,235.087,505,256,505s38.067-12.842,39.839-29.205
	C291.167,478.463,285.766,480,280,480C274.233,480,268.859,478.443,264.216,475.749z"/>
<path style="fill:#FFFFFF;" d="M287.571,358.876C283.125,345.203,270.394,336,256.016,336h-0.031
	c-14.378,0-27.109,9.203-31.556,22.876C214.966,387.976,200,435.913,200,448c0,11.846,6.442,22.181,16.009,27.713
	c0.049,0.029,0.102,0.053,0.152,0.082C220.833,478.463,226.235,480,232,480c5.767,0,11.141-1.557,15.784-4.251
	c5.144-2.985,11.288-2.985,16.432,0C268.859,478.443,274.233,480,280,480c5.766,0,11.167-1.537,15.839-4.205
	c0.05-0.028,0.103-0.053,0.152-0.082C305.558,470.181,312,459.846,312,448C312,435.913,297.034,387.976,287.571,358.876z"/>
<path style="fill:#464655;" d="M256,408c-8.861,0-16.997-2.914-23.584-7.816c-6.899-5.135-16.455-0.606-16.415,7.994
	c0.017,3.561,0.533,7.25,1.639,11.033c4.185,14.312,16.32,25.517,31,28.133C273.971,451.857,296,432.501,296,408
	c0-0.227-0.002-0.453-0.006-0.679c-0.146-8.205-9.826-12.038-16.41-7.138C272.997,405.086,264.861,408,256,408z"/>
<path d="M312,239.895c0,8.822,7.178,16,16,16s16-7.178,16-16s-7.178-16-16-16S312,231.072,312,239.895z"/>
<path d="M184,223.895c-8.822,0-16,7.178-16,16s7.178,16,16,16s16-7.178,16-16S192.822,223.895,184,223.895z"/>
<path d="M464.084,181.123c-28.992-13.292-61.921-21.228-88.084-21.228c-0.077,0-0.152,0.009-0.229,0.012
	c-5.638-13.547-13.933-26.978-23.917-38.471c0.02-0.11,0.053-0.216,0.069-0.328c3.229-23.092,8.675-50.427,12.169-57.748
	c0.646-0.068,1.342-0.103,2.086-0.103c26.468,0,87.768,39.875,109.154,55.239c3.359,2.414,8.005,1.868,10.714-1.258
	c2.708-3.126,2.588-7.802-0.279-10.784c-0.252-0.262-25.51-26.488-53.875-52.365C378.747,5.607,360.844,0,352,0
	c-30.925,0-54.998,47.689-70.133,89.395c-4.938,0.889-9.773,2.467-14.45,4.759c-7.148,3.503-15.685,3.504-22.833,0
	c-4.677-2.292-9.514-3.871-14.452-4.76C214.996,47.688,190.924,0,160,0c-8.844,0-26.747,5.607-79.892,54.09
	c-28.365,25.877-53.623,52.104-53.875,52.365c-2.867,2.982-2.988,7.657-0.279,10.784c2.708,3.126,7.355,3.672,10.714,1.258
	c21.385-15.364,82.683-55.239,109.154-55.239c0.743,0,1.44,0.034,2.086,0.103c3.494,7.321,8.939,34.656,12.169,57.748
	c0.016,0.112,0.048,0.218,0.068,0.329c-9.984,11.493-18.279,24.923-23.916,38.47c-0.077-0.002-0.152-0.012-0.229-0.012
	c-26.163,0-59.092,7.936-88.084,21.228C30.021,189.327,0,205.793,0,223.895c0,15.925,20.217,34.124,43.264,38.945
	c3.832,0.801,7.543,1.196,11.121,1.196c17.875-0.001,32.311-9.872,40.589-28.152c6.774-9.878,15.654-13.809,27.138-11.983
	c5.735,0.911,10.791,3.076,13.968,4.692c2.146,72.655,52.177,210.612,56.229,221.671c4.479,19.866,11.458,34.518,21.327,44.783
	C224.453,506.295,238.706,512,256,512c17.537,0,39.323-6.677,53.82-34.522c1.13-1.198,1.827-2.678,2.072-4.228
	c3.006-6.543,5.637-14.129,7.773-22.913c3.919-10.601,54.142-147.824,56.257-221.747c3.177-1.615,8.231-3.78,13.965-4.69
	c11.481-1.826,20.364,2.105,27.138,11.983c8.279,18.282,22.711,28.152,40.589,28.152c3.576,0,7.291-0.395,11.121-1.196
	C491.783,258.019,512,239.82,512,223.895C512,205.793,481.979,189.327,464.084,181.123z M111.167,207.851
	c6.655-8.261,12.682-12.263,17.04-14.195c-0.095,2.938-0.006,5.798,0.304,8.546c0.277,2.454,0.737,4.788,1.352,7.006
	C124.27,207.766,117.835,206.975,111.167,207.851z M130.774,176.182c-10.468,1.629-31.698,10.437-50.104,52.506
	c-8.491,19.406-23.245,20.766-34.131,18.49C29.977,243.713,16,230.412,16,223.895c0-3.675,11.318-15.727,38.584-28.228
	c25.1-11.507,53.146-18.686,76.233-19.643C130.804,176.076,130.788,176.129,130.774,176.182z M352,16
	c3.376,0,18.333,3.596,69.053,49.86c0.084,0.077,0.165,0.15,0.249,0.227c-19.968-10.441-40.547-18.83-55.124-18.83
	c-3.003,0-5.79,0.345-8.283,1.024c-6.352,1.732-10.441,8-16.496,38.931c-1.23,6.283-2.31,12.481-3.17,17.708
	c-12.063-8.629-25.006-13.91-39.125-15.972C316.337,43.683,336.269,16,352,16z M154.105,48.282c-2.493-0.68-5.279-1.024-8.283-1.024
	c-14.577,0-35.156,8.388-55.122,18.827c0.063-0.058,0.128-0.117,0.191-0.174C141.656,19.599,156.622,16,160,16
	c15.735,0,35.671,27.694,52.907,72.977c-0.606,0.11-1.218,0.235-1.83,0.363c-7.68,1.292-15.435,4.147-23.078,8.529
	c-4.532,2.322-9.206,5.049-14.04,8.206c-0.888-5.456-2.037-12.11-3.358-18.862C164.546,56.282,160.457,50.014,154.105,48.282z
	 M256,496c-10.688,0-19.495-2.667-26.694-8.246c0.178,0.002,0.357,0.009,0.534,0.009c11.079,0,20.799-3.928,26.16-6.618
	c5.278,2.649,14.785,6.492,25.654,6.61C274.501,493.271,265.972,496,256,496z M248.063,439.038
	c-10.741-2.672-19.549-11.142-22.746-22.073c-0.861-2.943-1.304-5.912-1.317-8.825c-0.003-0.658,0.173-1.156,0.537-1.522
	c0.374-0.375,0.937-0.6,1.504-0.6c0.541,0,1.078,0.196,1.598,0.583C235.901,412.75,245.708,416,256,416
	c10.292,0,20.099-3.25,28.36-9.399c0.524-0.39,1.104-0.588,1.722-0.588c0.193,0,1.888,0.041,1.913,1.447L288,408
	c0,14.908-10.248,27.466-24.068,31.004C263.44,435.057,260.08,432,256,432C251.908,432,248.539,435.074,248.063,439.038z
	 M367.59,200.407c-0.938,8.309-4.377,13.57-10.515,16.085c-4.088,1.675-6.044,6.348-4.369,10.436
	c1.224,2.987,4.05,4.818,7.078,4.944c-3.678,73.606-54.748,211.902-55.283,213.343c-0.111,0.3-0.205,0.607-0.28,0.918
	c-1.913,7.97-4.266,14.955-7.062,20.991c-12.245,8.397-26.552,3.342-33.159,0.146v-11.95c22.671-3.821,40-23.58,40-47.321
	c0-0.273-0.002-0.546-0.007-0.821c-0.172-9.625-8.039-17.166-17.911-17.166c-4.077,0-7.976,1.297-11.274,3.752
	C269.328,397.844,262.824,400,256,400s-13.328-2.156-18.808-6.235c-3.294-2.452-7.15-3.748-11.15-3.748
	c-4.802,0-9.483,1.937-12.844,5.313c-3.375,3.39-5.22,7.966-5.197,12.884c0.021,4.408,0.68,8.862,1.96,13.241
	c5.082,17.381,19.713,30.634,37.275,33.764c0.254,0.045,0.51,0.078,0.764,0.119v11.922c-6.729,3.228-21.546,8.425-33.897-0.656
	c-2.489-5.848-4.575-12.608-6.293-20.339c-0.078-0.349-0.179-0.693-0.302-1.029c-0.535-1.452-51.547-140.771-55.283-213.354
	c3.025-0.127,5.847-1.968,7.07-4.954c1.676-4.088-0.28-8.761-4.369-10.436c-6.138-2.516-9.578-7.777-10.515-16.085
	c-2.603-23.058,16.423-64.301,45.78-84.983c1.548-1.09,3.208-2.173,4.962-3.211c7.064-3.625,13.622-6.059,19.64-7.279
	c7.164-1.024,14.886-0.266,22.749,3.588c11.558,5.665,25.358,5.664,36.917,0c18.305-8.97,35.853-1.198,47.351,6.902
	C351.167,136.106,370.192,177.349,367.59,200.407z M382.137,209.208c0.615-2.218,1.075-4.552,1.353-7.007
	c0.31-2.748,0.398-5.607,0.304-8.544c4.358,1.933,10.383,5.935,17.038,14.193C394.165,206.976,387.729,207.767,382.137,209.208z
	 M465.46,247.178c-10.887,2.276-25.641,0.916-34.131-18.49c-18.405-42.068-39.635-50.876-50.104-52.506
	c-0.013-0.053-0.029-0.106-0.042-0.159c23.085,0.959,51.135,8.137,76.232,19.643C484.682,208.167,496,220.22,496,223.895
	C496,230.412,482.023,243.713,465.46,247.178z"/>
</svg>